<!DOCTYPE svg PUBLIC "-//W3C//DTD SVG 1.1//EN" "http://www.w3.org/Graphics/SVG/1.1/DTD/svg11.dtd">
<!-- Uploaded to: SVG Repo, www.svgrepo.com, Transformed by: SVG Repo Mixer Tools -->
<svg fill="#ffffff" width="800px" height="800px" viewBox="-2 -4 24 24" xmlns="http://www.w3.org/2000/svg" preserveAspectRatio="xMinYMin" class="jam jam-triangle" transform="rotate(180)" stroke="#ffffff">
<g id="SVGRepo_bgCarrier" stroke-width="0"/>
<g id="SVGRepo_tracerCarrier" stroke-linecap="round" stroke-linejoin="round"/>
<g id="SVGRepo_iconCarrier">
<path d="M10.528 2.358a1 1 0 0 0-1.377.32l-6.095 9.794A1 1 0 0 0 3.905 14h12.19a1 1 0 0 0 .85-1.528l-6.096-9.794a1 1 0 0 0-.32-.32zm2.019-.737l6.095 9.794A3 3 0 0 1 16.095 16H3.905a3 3 0 0 1-2.547-4.585L7.453 1.62a3 3 0 0 1 5.094 0z"/>
</g>
</svg>